# xmcd CD database file
#
# Track frame offsets:
#	150
#	19117
#	32663
#	48727
#	63718
#	80409
#	93333
#	107860
#	133295
#	153468
#	172950
#	190607
#
# Disc length: 2826 seconds
#
# Revision: 0
# Processed by: cddbd v1.5.1PL0 Copyright (c) Steve Scherf et al.
# Submitted via: CDex 1.51
#
DISCID=9f0b080c
DTITLE=Creole Dixieland Jazz Band - Messin' Around
DYEAR=2002
DGENRE=Jazz
TTITLE0=Lousiana
TTITLE1=Everybody Loves My Baby
TTITLE2=Messin' Around
TTITLE3=Dallas Blues
TTITLE4=Margie
TTITLE5=Muskrat Ramble
TTITLE6=1919 Rag
TTITLE7=When You're Smiling
TTITLE8=By and By
TTITLE9=Charleston
TTITLE10=Lotus Blossom
TTITLE11=Once in a While
EXTD=YEAR: 2002
EXTT0=
EXTT1=
EXTT2=
EXTT3=
EXTT4=
EXTT5=
EXTT6=
EXTT7=
EXTT8=
EXTT9=
EXTT10=
EXTT11=
PLAYORDER=
